<svg width="82" height="16" viewBox="0 0 82 16" fill="none" xmlns="http://www.w3.org/2000/svg">
<path fill-rule="evenodd" clip-rule="evenodd" d="M46.2212 7.90441C46.2161 7.80826 46.2126 7.63248 46.1965 7.45815C46.0776 6.16997 45.3098 5.08167 44.0556 4.92799C42.7022 4.7621 41.6396 5.4779 41.2829 6.8872C41.1143 7.55314 41.1043 8.22908 41.2438 8.89877C41.4504 9.8911 41.9517 10.6418 42.8873 10.9251C43.829 11.2102 44.7215 11.0831 45.4493 10.3032C46.0414 9.66874 46.2185 8.85612 46.2212 7.90441ZM46.0708 11.082C45.6271 11.8062 44.9606 12.0996 44.2218 12.2143C42.9788 12.4073 41.8432 12.1451 40.9256 11.1505C40.3663 10.5442 40.0646 9.78651 39.9395 8.95007C39.762 7.76208 39.8586 6.6126 40.4179 5.5439C40.9105 4.60267 41.6544 4.02106 42.6257 3.79466C43.6554 3.55472 44.636 3.67555 45.5106 4.3632C45.7164 4.52496 45.8902 4.73436 46.0933 4.93645V3.8278H47.3526C47.3566 3.90618 47.3645 3.98965 47.3645 4.07322C47.3651 6.86781 47.3649 9.66251 47.3651 12.4572C47.3652 13.5932 46.9809 14.5095 46.0511 15.0984C45.6523 15.3509 45.2135 15.4954 44.7484 15.4994C43.502 15.5102 42.2556 15.5101 41.0093 15.5135C40.9741 15.5136 40.939 15.5055 40.8934 15.4999V14.3467C40.9795 14.3467 41.0583 14.3467 41.1369 14.3467C42.2064 14.3467 43.2759 14.3456 44.3454 14.347C45.0857 14.3478 45.6374 14.0159 45.9515 13.2748C46.009 13.1393 46.0622 12.9873 46.0655 12.8416C46.0784 12.2622 46.0708 11.6823 46.0708 11.082Z" fill="#14273C"/>
<path fill-rule="evenodd" clip-rule="evenodd" d="M8.39669 12.1373H7.08074V6.85261H1.48415V12.134H0.139771V0.593346H1.47485V5.51861H7.07011V0.58374H8.39669V12.1373Z" fill="#14273C"/>
<path fill-rule="evenodd" clip-rule="evenodd" d="M36.7088 7.73331C36.0756 5.93796 35.4531 4.17306 34.8128 2.35754C34.1643 4.18094 33.5364 5.94651 32.901 7.73331H36.7088ZM29.9432 12.1457C30.1187 11.6625 30.2834 11.2042 30.4513 10.7472C31.6693 7.43023 32.8896 4.11426 34.1018 0.79482C34.1646 0.622979 34.239 0.56064 34.4047 0.5689C34.6698 0.582156 34.9363 0.582732 35.2012 0.568612C35.3608 0.560063 35.4324 0.625092 35.4899 0.783005C36.1938 2.71677 36.9044 4.64764 37.6132 6.57929C38.2732 8.3779 38.9332 10.1765 39.593 11.9752C39.609 12.019 39.6218 12.0641 39.6478 12.1446C39.198 12.1446 38.7678 12.1506 38.3383 12.1364C38.2891 12.1348 38.224 12.0282 38.1984 11.9569C37.9112 11.1551 37.6275 10.3518 37.3486 9.54659C37.1789 9.05662 37.1833 9.0548 36.6919 9.0548C35.3565 9.0548 34.0211 9.05883 32.6857 9.05028C32.4959 9.04903 32.4044 9.10167 32.335 9.30665C32.0332 10.1966 31.7059 11.0764 31.3978 11.9638C31.3467 12.111 31.2784 12.1524 31.1406 12.1491C30.7513 12.1395 30.3616 12.1457 29.9432 12.1457Z" fill="#14273C"/>
<path fill-rule="evenodd" clip-rule="evenodd" d="M15.5963 7.09257C15.5567 5.69844 14.6055 4.79621 13.2186 4.82195C11.7862 4.84855 11.0475 6.00437 10.9616 7.09257H15.5963ZM16.8881 8.17616H10.8834C10.897 8.67794 11.0096 9.13209 11.2127 9.55799C12.0158 11.2425 13.7151 11.3995 14.8648 10.7081C15.2363 10.4847 15.491 10.1345 15.6336 9.69564C15.6577 9.62129 15.685 9.54819 15.7117 9.47193H16.9578C16.9025 10.0346 16.7028 10.5228 16.3777 10.9417C15.6726 11.8501 14.7316 12.217 13.6655 12.2738C11.5282 12.3878 9.78388 10.6803 9.64561 8.33321C9.57235 7.08844 9.8024 5.93435 10.5671 4.95892C11.0503 4.34254 11.6693 3.95362 12.3989 3.79244C13.3971 3.572 14.371 3.65047 15.2617 4.22545C16.3325 4.91666 16.8055 5.99986 16.8856 7.31081C16.9025 7.58783 16.8881 7.86706 16.8881 8.17616Z" fill="#14273C"/>
<path fill-rule="evenodd" clip-rule="evenodd" d="M28.3462 7.09326C28.3782 6.00295 27.6297 4.84771 26.1005 4.81908C24.6355 4.79171 23.8161 5.93725 23.7312 7.09326H28.3462ZM29.6735 8.17328H23.6244C23.6851 8.49025 23.7163 8.78812 23.7998 9.06773C24.3941 11.0605 26.2344 11.5282 27.6299 10.7095C28.0133 10.4846 28.273 10.1268 28.4035 9.67585C28.4525 9.50631 28.5276 9.45598 28.6854 9.46175C29.0302 9.47442 29.3758 9.46568 29.7372 9.46568C29.6322 10.2018 29.3439 10.8076 28.8467 11.2841C28.0399 12.0574 27.0758 12.3175 26.0205 12.2635C25.3205 12.2276 24.6773 12.0164 24.0952 11.5843C23.244 10.9524 22.7284 10.0768 22.5115 8.99992C22.2904 7.90202 22.3631 6.82045 22.8288 5.80343C23.4166 4.52005 24.3855 3.82251 25.7074 3.70801C26.4395 3.64461 27.1468 3.73615 27.8124 4.09914C28.839 4.65895 29.4102 5.57943 29.5926 6.78443C29.6597 7.22782 29.6476 7.68523 29.6735 8.17328Z" fill="#14273C"/>
<path fill-rule="evenodd" clip-rule="evenodd" d="M54.4833 7.09097C54.4767 6.56642 54.3266 6.11305 54.0471 5.70482C53.3147 4.63525 51.5897 4.59001 50.7604 5.28247C50.2104 5.7416 49.9395 6.35693 49.8251 7.09097H54.4833ZM55.7969 8.17483H49.7775C49.7918 8.78977 49.9531 9.32498 50.2393 9.81899C51.0206 11.1676 52.8678 11.5211 53.9807 10.5346C54.2431 10.3019 54.4334 10.0111 54.5277 9.65704C54.567 9.50921 54.6331 9.45648 54.7767 9.46109C55.1294 9.47223 55.4826 9.46474 55.8555 9.46474C55.7587 10.155 55.5009 10.7334 55.0493 11.1977C54.235 12.0347 53.2409 12.3156 52.1443 12.2634C51.4284 12.2292 50.7712 12.0092 50.1817 11.5605C49.3392 10.9196 48.8287 10.04 48.6257 8.9594C48.3898 7.7033 48.5154 6.49388 49.1602 5.39253C49.76 4.3683 50.6465 3.82963 51.7517 3.71091C52.2973 3.65241 52.841 3.68161 53.37 3.85979C54.6945 4.30587 55.462 5.29225 55.7068 6.75025C55.7824 7.20017 55.7676 7.66795 55.7969 8.17483Z" fill="#14273C"/>
<path fill-rule="evenodd" clip-rule="evenodd" d="M63.5932 12.1361H62.3551C62.3551 12.0413 62.3551 11.9562 62.3551 11.8712C62.3551 10.386 62.3576 8.90077 62.3537 7.41559C62.3523 6.87701 62.2997 6.34477 62.0301 5.87305C61.5919 5.10625 60.839 4.77861 59.9867 4.97168C59.0121 5.19241 58.3123 6.09129 58.2404 7.27227C58.2007 7.92438 58.2142 8.58063 58.2114 9.23514C58.2075 10.1929 58.2105 11.1507 58.2105 12.1274H56.9634V3.8296H58.2021V5.32199C58.2573 5.2512 58.2886 5.22469 58.3036 5.18992C58.6969 4.27836 59.3989 3.83796 60.2834 3.71625C61.0002 3.6177 61.6948 3.71904 62.3191 4.15714C63.0482 4.66882 63.4138 5.42477 63.5476 6.32912C63.5824 6.56435 63.5979 6.80526 63.5985 7.04357C63.6029 8.68043 63.6009 10.3173 63.6006 11.9541C63.6006 12.0088 63.5963 12.0635 63.5932 12.1361Z" fill="#14273C"/>
<path fill-rule="evenodd" clip-rule="evenodd" d="M74.0226 15.514C74.1772 15.0066 74.3194 14.5381 74.4627 14.0701C74.6273 13.5329 74.7979 12.9978 74.9536 12.4577C74.9836 12.354 74.986 12.2197 74.9521 12.1187C74.0589 9.46243 73.1593 6.80865 72.2611 4.15429C72.2262 4.05113 72.1953 3.94634 72.1566 3.82339H73.4458C74.1598 5.98201 74.8754 8.14592 75.6112 10.3705C75.8033 9.78758 75.9773 9.26255 76.1495 8.73675C76.6632 7.16713 77.1775 5.5977 77.6874 4.02664C77.7373 3.87305 77.799 3.79688 77.9671 3.80475C78.3337 3.82176 78.7014 3.80994 79.0907 3.80994C78.863 4.48943 78.6446 5.14778 78.422 5.80441C77.8514 7.48708 77.2677 9.16457 76.7108 10.8524C76.2233 12.3297 75.7621 13.8172 75.298 15.3035C75.246 15.47 75.1765 15.5245 75.0185 15.5179C74.7027 15.5048 74.3861 15.514 74.0226 15.514Z" fill="#14273C"/>
<path fill-rule="evenodd" clip-rule="evenodd" d="M71.9681 6.63756C71.5729 6.63756 71.2047 6.64149 70.8369 6.63275C70.7883 6.6316 70.7074 6.57339 70.6982 6.52805C70.4547 5.33007 69.1304 4.77603 68.0942 4.92866C67.1628 5.06582 66.5621 5.63485 66.2479 6.55908C65.9152 7.53787 65.9183 8.53222 66.2904 9.50208C66.6195 10.3602 67.1991 10.9055 68.0724 11.0186C68.8208 11.1155 69.543 11.021 70.1208 10.4459C70.3451 10.2226 70.4953 9.90426 70.6515 9.61177C70.7191 9.48489 70.7717 9.42034 70.9126 9.42485C71.2508 9.43571 71.5894 9.42841 71.9489 9.42841C71.8245 10.3411 71.4224 11.0462 70.7471 11.5598C69.9931 12.1335 69.1391 12.3113 68.2305 12.262C67.5297 12.224 66.88 12.0275 66.3088 11.5791C65.297 10.7847 64.812 9.67306 64.7261 8.35347C64.634 6.94022 64.9872 5.68211 65.961 4.68449C66.5501 4.08108 67.2655 3.78081 68.0698 3.70647C68.875 3.63202 69.646 3.76093 70.3585 4.17876C71.2521 4.70274 71.8183 5.49288 71.9681 6.63756Z" fill="#14273C"/>
<path fill-rule="evenodd" clip-rule="evenodd" d="M18.0653 12.1254V3.82495H19.3202V5.3962C19.4545 5.12485 19.5532 4.87847 19.6896 4.65966C19.982 4.19111 20.4062 3.91246 20.9199 3.86577C21.3937 3.82274 21.8735 3.85665 22.3661 3.85665V5.01256C22.0801 5.01256 21.8019 5.01237 21.5237 5.01266C20.3377 5.01372 19.7637 5.47785 19.511 6.73558C19.3946 7.31527 19.3481 7.91906 19.3346 8.51364C19.3078 9.69491 19.3258 10.8773 19.3249 12.0593C19.3249 12.0747 19.3198 12.0903 19.3137 12.1254H18.0653Z" fill="#14273C"/>
<path fill-rule="evenodd" clip-rule="evenodd" d="M79.8802 9.46436C80.6069 9.46436 81.1961 10.0892 81.1961 10.8601C81.1961 11.6309 80.6069 12.2559 79.8802 12.2559C79.1536 12.2559 78.5644 11.6309 78.5644 10.8601C78.5644 10.0892 79.1536 9.46436 79.8802 9.46436Z" fill="#BE301A"/>
</svg>
