<svg xmlns="http://www.w3.org/2000/svg" width="29" height="28" viewBox="0 0 29 28" fill="none"><path d="M16.639 8.57085L16.639 8.57086C17.5835 9.62454 17.8214 11.0704 17.2965 12.2457C17.1045 12.6756 16.7158 13.2736 15.9274 13.7689C15.1371 14.2654 13.9011 14.6863 11.9704 14.6863C9.13549 14.6863 6.49221 13.5656 4.52002 11.5272L4.52 11.5272C2.54821 9.48935 1.51548 6.811 1.60896 3.9781L1.60896 3.97809C1.65236 2.66196 2.28677 1.62403 3.31758 1.07338L3.31759 1.07338C4.45172 0.467527 5.90193 0.515382 6.99334 1.19457L6.99338 1.1946C7.98531 1.81177 8.54972 2.88893 8.50632 4.20484L8.50632 4.20486C8.46881 5.3433 8.97146 6.39702 9.88023 7.08284L9.88025 7.08285C10.7916 7.77056 11.9443 7.96765 13.0297 7.61926L13.0298 7.61922C14.3826 7.18468 15.7179 7.54329 16.639 8.57085Z" stroke="#58221A" stroke-width="1.3"></path><path d="M19.9998 19.8457C20.7987 19.2841 21.3121 18.4038 21.4082 17.4316L21.4082 17.4316C21.5367 16.132 22.2329 15.1452 23.2912 14.6661L23.2913 14.6661C24.4658 14.1343 25.9159 14.278 26.9666 15.0316L26.9666 15.0316C27.914 15.711 28.4041 16.8149 28.276 18.1108C27.9824 21.0793 26.4175 23.7628 23.9829 25.4746C22.2297 26.7071 20.1561 27.3501 18.0489 27.3501C17.2017 27.3501 16.3491 27.2462 15.5094 27.0348C13.3665 26.495 12.6444 24.5674 13.0755 22.8558C13.5021 21.162 15.0609 19.8052 17.248 20.356M19.9998 19.8457L19.626 19.3139L19.9998 19.8457ZM19.9998 19.8457C19.1993 20.4084 18.1961 20.5948 17.248 20.356M17.248 20.356L17.4068 19.7256L17.248 20.356Z" stroke="#58221A" stroke-width="1.3"></path></svg>