<svg xmlns="http://www.w3.org/2000/svg" width="28" height="28" viewBox="0 0 28 28" fill="none"><g clip-path="url(#clip0_53_30046)"><path d="M13.9999 0C6.28034 0 0 6.28034 0 13.9999C0 21.7196 6.28034 27.9999 13.9999 27.9999C21.7197 27.9999 28 21.7196 28 13.9999C28 6.28034 21.7197 0 13.9999 0ZM13.6693 17.4496C13.321 17.8235 12.9488 18.1561 12.3511 18.4473C11.7533 18.7386 10.9992 18.8842 10.0862 18.8842C8.9255 18.8842 7.94838 18.5234 7.21375 17.8017C6.47902 17.0801 6.08241 16.1433 6.08241 14.9912V13.0088C6.08241 11.8611 6.46544 10.9253 7.17196 10.2015C7.87836 9.47767 8.80297 9.11577 9.91595 9.11577C11.0723 9.11577 11.9655 9.3973 12.5807 9.96022C13.1958 10.5233 13.5137 11.2761 13.5267 12.1933L13.5174 12.245H11.7241C11.6893 11.6978 11.5285 11.3292 11.2416 11.0358C10.9547 10.7423 10.5351 10.5893 9.98306 10.5893C9.40044 10.5893 8.94721 10.8109 8.59083 11.2604C8.23432 11.71 8.07241 12.2855 8.07241 12.9934V14.987C8.07241 15.708 8.24081 16.2932 8.61038 16.7428C8.97985 17.1923 9.46954 17.417 10.0955 17.417C10.539 17.417 10.9082 17.3716 11.1779 17.2805C11.4474 17.1895 11.5798 17.0768 11.8037 16.9424V15.2052H10.0376V13.8868H13.6693V17.4496H13.6693ZM21.9029 10.7027H17.1767V13.3395H21.2313V14.7574H17.1767V18.7125H15.311V9.28487H21.9029V10.7027Z" fill="#14273C"></path><circle cx="14" cy="14" r="13.3636" fill="#58221A" stroke="#58221A" stroke-width="1.27273"></circle><path d="M13.9999 1.27222C6.98211 1.27222 1.27271 6.98162 1.27271 13.9994C1.27271 21.0173 6.98211 26.7267 13.9999 26.7267C21.0178 26.7267 26.7272 21.0173 26.7272 13.9994C26.7272 6.98162 21.0178 1.27222 13.9999 1.27222ZM13.6993 17.1355C13.3827 17.4754 13.0443 17.7778 12.501 18.0425C11.9575 18.3073 11.2719 18.4397 10.442 18.4397C9.3868 18.4397 8.49851 18.1117 7.83066 17.4556C7.16272 16.7996 6.80217 15.9479 6.80217 14.9006V13.0984C6.80217 12.055 7.15037 11.2043 7.79267 10.5463C8.43485 9.88828 9.2754 9.55928 10.2872 9.55928C11.3384 9.55928 12.1505 9.81522 12.7097 10.327C13.2689 10.8388 13.5579 11.5232 13.5697 12.357L13.5613 12.4041H11.931C11.8993 11.9066 11.7532 11.5715 11.4923 11.3047C11.2315 11.038 10.8501 10.8988 10.3482 10.8988C9.81856 10.8988 9.40654 11.1003 9.08255 11.509C8.75845 11.9177 8.61126 12.4408 8.61126 13.0844V14.8968C8.61126 15.5522 8.76435 16.0842 9.10033 16.4929C9.4362 16.9016 9.88138 17.1059 10.4505 17.1059C10.8536 17.1059 11.1893 17.0645 11.4344 16.9817C11.6794 16.899 11.7998 16.7966 12.0033 16.6744V15.0951H10.3978V13.8966H13.6994V17.1355H13.6993ZM21.1844 11.002H16.8879V13.399H20.5739V14.688H16.8879V18.2836H15.1918V9.71301H21.1844V11.002Z" fill="#FCFAF0"></path></g><defs><clipPath id="clip0_53_30046"><rect width="28" height="28" fill="white"></rect></clipPath></defs></svg>