<svg xmlns="http://www.w3.org/2000/svg" width="56" height="56" viewBox="0 0 56 56" fill="none"><path d="M14 42C14 49.7296 20.2625 56 28 56C35.7375 56 42 49.7375 42 42C49.7296 42 56 35.7296 56 28C56 20.2704 49.7375 14 42 14C42 6.27042 35.7375 0 28 0C20.2625 0 14 6.27042 14 14C6.27042 14 0 20.2704 0 28C0 35.7296 6.26253 42 14 42Z" fill="#14273C"></path><path d="M28 2.64233C34.2704 2.64233 39.3657 7.74543 39.3657 14.008V16.6344H41.9921C48.2626 16.6344 53.3578 21.7375 53.3578 28.0001C53.3578 34.2626 48.2547 39.3657 41.9921 39.3657H39.3657V41.9922C39.3657 48.2626 34.2625 53.3578 28 53.3578C21.7375 53.3578 16.6344 48.2547 16.6344 41.9922V39.3657H14.0079C7.73749 39.3657 2.64227 34.2626 2.64227 28.0001C2.64227 21.7375 7.74537 16.6344 14.0079 16.6344H16.6344V14.008C16.6344 7.73755 21.7375 2.64233 28 2.64233Z" fill="#E9AE11"></path><path d="M15.5301 34.578C17.0681 34.578 18.4878 34.0417 19.6078 33.1583C19.6394 33.1346 19.6631 33.1189 19.6946 33.0952C19.9391 32.8507 20.1836 32.622 20.4124 32.4011C22.116 30.8 23.5436 29.8772 24.8608 31.1786C26.1149 32.4169 25.3262 33.7814 23.867 35.3746C23.5594 35.7059 23.2281 36.0529 22.8732 36.4079C22.8417 36.4394 22.8022 36.4789 22.7707 36.5104C21.9267 37.6146 21.4298 38.987 21.4298 40.4856C21.4298 44.1138 24.3718 47.0558 28 47.0558C31.6281 47.0558 34.5701 44.1138 34.5701 40.4856C34.5701 38.9476 34.0338 37.5279 33.1504 36.4079C33.1346 36.3842 33.111 36.3605 33.0952 36.3369C32.8428 36.0845 32.6062 35.84 32.3774 35.5955C30.8078 33.9234 29.9087 32.5036 31.2101 31.2259C32.4957 29.956 33.8918 30.8158 35.5403 32.3538C35.8005 32.5983 36.0687 32.8586 36.3447 33.1346C36.3605 33.1504 36.3763 33.1583 36.3921 33.1741C37.5121 34.0653 38.9239 34.5938 40.4698 34.5938C44.098 34.5938 47.04 31.6518 47.04 28.0236C47.04 24.3955 44.098 21.4535 40.4698 21.4535C38.987 21.4535 37.6225 21.9504 36.5183 22.7786C36.4788 22.818 36.4315 22.8653 36.3921 22.9048C36.0293 23.2597 35.6822 23.5989 35.351 23.9065C33.7577 25.3577 32.4011 26.1307 31.1549 24.8924C29.8456 23.5989 30.7684 22.1555 32.3616 20.4597C32.5983 20.2152 32.8428 19.9628 33.0952 19.7025C33.111 19.6789 33.1346 19.6552 33.1504 19.6315C34.0416 18.5115 34.5701 17.0997 34.5701 15.5538C34.5701 11.9256 31.6281 8.98364 28 8.98364C24.3718 8.98364 21.4298 11.9256 21.4298 15.5538C21.4298 17.0603 21.9425 18.4484 22.8022 19.5605C22.8259 19.5842 22.8495 19.6079 22.8732 19.6315C23.2202 19.9786 23.5515 20.3256 23.8591 20.649C25.3577 22.2738 26.1701 23.662 24.9002 24.916C23.6304 26.1701 22.2501 25.3577 20.6174 23.8591C20.294 23.5594 19.9549 23.2281 19.6078 22.8811C19.5921 22.8653 19.5684 22.8417 19.5526 22.8259C18.4405 21.9662 17.0445 21.4456 15.5301 21.4456C11.9019 21.4456 8.95996 24.3876 8.95996 28.0158C8.95996 31.6439 11.9019 34.5859 15.5301 34.5859V34.578Z" fill="#BE301A"></path></svg>