<svg width="137" height="36" viewBox="0 0 137 36" fill="none" xmlns="http://www.w3.org/2000/svg">
<g clip-path="url(#clip0_343_2)">
<path d="M0 17.9883C0 12.4319 2.3542 7.48197 6.15873 4.99921V2.10957C6.15873 0.945936 7.10404 0 8.26689 0H128.531C129.693 0 130.639 0.945936 130.639 2.10957V4.97329C134.446 7.46123 136.797 12.4268 136.797 18.0091C136.797 23.5914 134.443 28.5154 130.639 31.0008V33.8904C130.639 35.0541 129.693 36 128.531 36H15.8345C15.7879 36 15.7439 36 15.6998 35.9974H15.5963L8.26689 36C7.10404 36 6.15873 35.0541 6.15873 33.8904V31.0267C2.3542 28.5362 0 23.5732 0 17.9883ZM129.696 2.10957C129.696 1.46685 129.173 0.943345 128.531 0.943345H8.26689C7.6246 0.943345 7.10145 1.46685 7.10145 2.10957V5.52012L6.87872 5.65748C3.21922 7.92254 0.942716 12.647 0.942716 17.9883C0.942716 23.3296 3.21663 28.0956 6.87872 30.3633L7.10145 30.5006V33.8878C7.10145 34.5306 7.6246 35.0541 8.26689 35.0541H15.7257C15.7594 35.0541 15.7957 35.0541 15.8319 35.0541H128.531C129.173 35.0541 129.696 34.5306 129.696 33.8878V30.4773L129.919 30.3399C133.581 28.0749 135.855 23.3504 135.855 18.0091C135.855 12.6678 133.581 7.90181 129.919 5.63415L129.696 5.4968V2.10957Z" fill="#0A382F"/>
<path d="M2.00454 17.9884C2.00454 12.9788 4.20853 8.45126 7.61681 6.45313C7.95608 6.25358 8.16586 5.89075 8.16586 5.49942V2.35839C8.16586 2.16402 8.32385 2.00334 8.52068 2.00334L128.284 1.98779C128.479 1.98779 128.639 2.14588 128.639 2.34284V5.47609C128.639 5.86484 128.849 6.23025 129.188 6.42981C132.597 8.43052 134.801 12.9736 134.801 18.0091C134.801 23.0446 132.597 27.5462 129.188 29.5443C128.849 29.7439 128.639 30.1067 128.639 30.498L128.652 33.6391C128.652 33.735 128.616 33.8231 128.549 33.8905C128.481 33.9578 128.393 33.9941 128.297 33.9941H15.8345C15.8138 33.9941 15.7931 33.9941 15.7723 33.9941H15.7205L8.51809 34.0097C8.42485 34.0097 8.33421 33.9734 8.26687 33.906C8.19953 33.8386 8.16327 33.7505 8.16327 33.6546V30.524C8.16327 30.1352 7.95349 29.7698 7.61422 29.5703C4.20594 27.5695 2.00195 23.0264 2.00195 17.991L2.00454 17.9884ZM128.398 2.34543C128.398 2.28064 128.347 2.22622 128.279 2.22622L8.5155 2.24177C8.45075 2.24177 8.39636 2.2936 8.39636 2.36098V5.50201C8.39636 5.97368 8.14256 6.41685 7.73077 6.65787C4.39241 8.61453 2.23504 13.0617 2.23504 17.9884C2.23504 22.915 4.39241 27.4063 7.73077 29.3629C8.13997 29.6039 8.39636 30.0471 8.39636 30.5188V33.6494C8.39636 33.6805 8.40931 33.7116 8.43003 33.7324C8.45334 33.7557 8.48183 33.7661 8.51291 33.7661L15.7231 33.7479H15.7672C15.7956 33.7531 15.8112 33.7531 15.8267 33.7531H128.287C128.318 33.7531 128.349 33.7401 128.37 33.7168C128.393 33.6935 128.404 33.665 128.404 33.6339L128.391 30.4929C128.391 30.0212 128.644 29.5754 129.056 29.337C132.395 27.3803 134.552 22.9332 134.552 18.0065C134.552 13.0799 132.395 8.58861 129.056 6.63195C128.647 6.39093 128.391 5.94777 128.391 5.47609V2.34284L128.398 2.34543Z" fill="#0A382F"/>
<path d="M22.9023 18.219C22.8557 17.3145 22.7909 15.9798 22.7909 15.389C22.7909 14.4534 22.9489 11.6519 22.9489 11.6519H20.4885C20.4885 11.6519 20.6465 14.4534 20.6465 15.389C20.6465 16.3245 20.4963 18.9524 20.4885 19.1183H26.7094V18.219H22.9023Z" fill="#0A382F"/>
<path d="M18.5383 19.1184V18.2191H13.6202C13.5813 17.4494 13.5295 16.3713 13.514 15.7001H17.9194V14.7982H13.5217C13.5425 14.127 13.5865 13.2122 13.6228 12.5409H18.4865V11.6494H11.209C11.209 11.6494 11.367 14.4535 11.367 15.3891C11.367 16.3247 11.2168 18.9526 11.209 19.1184H18.5383Z" fill="#0A382F"/>
<path d="M63.8638 11.6415C63.8638 11.6415 64.1357 16.4101 64.1357 18.0013C64.1357 19.5926 63.8664 24.3378 63.8638 24.3585H68.0516C68.0516 24.343 67.904 21.7488 67.8263 19.7532H69.8749L73.4127 24.3585H77.6316L73.8995 19.7532H74.0342C75.7902 19.7532 77.2146 18.3279 77.2146 16.5707V14.8318C77.2146 13.0747 75.7902 11.6493 74.0342 11.6493L63.8638 11.6389V11.6415ZM67.9687 13.1757H71.2475C72.2239 13.1757 73.0138 13.9662 73.0138 14.9432V16.4619C73.0138 17.4389 72.2239 18.2294 71.2475 18.2294H67.7823L67.9687 13.1757Z" fill="#0A382F"/>
<path d="M91.4383 13.1679V11.6519H79.2555V13.1679H83.2672C83.3475 14.7048 83.4563 17.0009 83.4563 18.0117C83.4563 19.5537 83.2025 24.0734 83.1869 24.3559H87.3722C87.3566 24.0734 87.1028 19.5511 87.1028 18.0117C87.1028 17.0009 87.2116 14.7048 87.2919 13.1679H91.4383Z" fill="#0A382F"/>
<path d="M56.7312 24.3586C59.1087 24.3586 61.0356 22.4305 61.0356 20.0514V15.9567C61.0356 13.5776 59.1087 11.6494 56.7312 11.6494H49.7178C47.3403 11.6494 45.4135 13.5776 45.4135 15.9567V20.0514C45.4135 22.4305 47.3403 24.3586 49.7178 24.3586H56.7312ZM49.4096 15.6509C49.4096 14.2903 50.5233 13.1759 51.883 13.1759H54.5661C55.931 13.1759 57.0394 14.2851 57.0394 15.6509V20.3443C57.0394 21.7048 55.9258 22.8192 54.5661 22.8192H51.883C50.5181 22.8192 49.4096 21.71 49.4096 20.3443V15.6509Z" fill="#0A382F"/>
<path d="M104.271 24.3586C106.649 24.3586 108.576 22.4305 108.576 20.0514V15.9567C108.576 13.5776 106.649 11.6494 104.271 11.6494H97.2577C94.8802 11.6494 92.9534 13.5776 92.9534 15.9567V20.0514C92.9534 22.4305 94.8802 24.3586 97.2577 24.3586H104.271ZM96.9496 15.6509C96.9496 14.2903 98.0632 13.1759 99.4229 13.1759H102.106C103.471 13.1759 104.579 14.2851 104.579 15.6509V20.3443C104.579 21.7048 103.466 22.8192 102.106 22.8192H99.4229C98.058 22.8192 96.9496 21.71 96.9496 20.3443V15.6509Z" fill="#0A382F"/>
<path d="M30.2057 11.6546C30.2057 11.6546 30.4776 16.4232 30.4776 18.0144C30.4776 19.6056 30.2238 24.0762 30.2083 24.3586H34.3935C34.3806 24.1513 34.2433 21.6712 34.1682 19.7534H40.3813C42.1373 19.7534 43.5617 18.328 43.5617 16.5709V14.8319C43.5617 13.0748 42.1373 11.6494 40.3813 11.6494C40.3658 11.6494 30.2057 11.6494 30.2057 11.6494V11.6546ZM34.3106 13.1759H37.5946C38.571 13.1759 39.3609 13.9663 39.3609 14.9433V16.462C39.3609 17.4391 38.571 18.2295 37.5946 18.2295H34.1242L34.3106 13.1759Z" fill="#0A382F"/>
<path d="M98.1926 9.54224L98.6225 10.6592L104.551 9.64073L103.807 7.66333L98.1926 9.54224Z" fill="#0A382F"/>
<path d="M125.591 11.6546H121.934C121.934 11.6546 122.206 16.4232 122.206 18.0144L122.317 20.7278L116.089 11.6494H111.606C111.624 11.9682 111.875 16.4802 111.875 18.0144C111.875 19.5486 111.621 24.0762 111.606 24.3586H115.262C115.247 24.0762 114.993 19.5538 114.993 18.0144L114.887 15.4098L121.038 24.3612H125.596C125.581 24.0788 125.327 19.5564 125.327 18.017C125.327 16.4776 125.599 11.6572 125.599 11.6572L125.591 11.6546Z" fill="#0A382F"/>
<path d="M26.7045 20.4917H11.2325V21.4428H26.7045V20.4917Z" fill="#0A382F"/>
</g>
<defs>
<clipPath id="clip0_343_2">
<rect width="136.8" height="36" fill="white"/>
</clipPath>
</defs>
</svg>
