<svg xmlns="http://www.w3.org/2000/svg" width="40" height="40" viewBox="0 0 40 40" fill="none"><path d="M23.8294 34.8852C25.9031 33.1931 27.4298 31.1066 27.4298 28.3458C27.4298 28.015 27.4044 27.697 27.3662 27.3662C27.6843 27.4043 28.0151 27.4298 28.3458 27.4298C31.0939 27.4298 33.1932 25.9031 34.8853 23.8293C36.641 21.6665 37.9641 20.3942 39.389 19.6945C37.9641 18.9947 36.641 17.7098 34.8853 15.5597C33.1932 13.4859 31.1066 11.9592 28.3458 11.9592C28.0151 11.9592 27.6843 11.9846 27.3662 12.0228C27.4044 11.7047 27.4298 11.3739 27.4298 11.0432C27.4298 8.29509 25.9031 6.19588 23.8294 4.50378C21.6665 2.74807 20.3943 1.42492 19.6945 0C18.9948 1.42492 17.7098 2.74807 15.5597 4.50378C13.4859 6.19588 11.9592 8.28237 11.9592 11.0432C11.9592 11.3739 11.9846 11.7047 12.0228 12.0228C11.7047 11.9846 11.374 11.9592 11.0432 11.9592C8.29516 11.9592 6.19592 13.4859 4.50383 15.5597C2.74812 17.7225 1.42492 18.9947 0 19.6945C1.42492 20.3942 2.74812 21.6792 4.50383 23.8293C6.19592 25.9158 8.28244 27.4298 11.0432 27.4298C11.374 27.4298 11.7047 27.4043 12.0228 27.3662C11.9846 27.6842 11.9592 28.015 11.9592 28.3458C11.9592 31.0939 13.4859 33.1931 15.5597 34.8852C17.7225 36.6409 18.9948 37.9641 19.6945 39.389C20.3943 37.9641 21.6793 36.6409 23.8294 34.8852Z" fill="#E9AE11"></path><path d="M8.15521 19.703C8.63867 19.2068 9.14753 18.6216 9.70732 17.9346C11.1195 16.1916 12.2646 15.988 12.9898 15.988C13.1424 15.988 13.3078 16.0007 13.4605 16.0262L16.3613 16.3951L15.9923 13.4944C15.9668 13.3417 15.9541 13.189 15.9541 13.0237C15.9541 12.2857 16.1577 11.1534 17.9006 9.74124C18.5877 9.18145 19.1729 8.67254 19.6691 8.18909C20.1653 8.67254 20.7505 9.18145 21.4375 9.74124C23.1805 11.1534 23.3841 12.2985 23.3841 13.0237C23.3841 13.1763 23.3714 13.3417 23.3459 13.4944L22.9769 16.3951L25.8777 16.0262C26.0304 16.0007 26.183 15.988 26.3484 15.988C27.0863 15.988 28.2187 16.1916 29.6309 17.9346C30.1907 18.6216 30.6995 19.2068 31.183 19.703C30.6995 20.1992 30.1907 20.7844 29.6309 21.4714C28.2187 23.2144 27.0736 23.418 26.3484 23.418C26.183 23.418 26.0304 23.4052 25.8777 23.3798L22.9769 23.0108L23.3459 25.9116C23.3714 26.0643 23.3841 26.2169 23.3841 26.3823C23.3841 27.1202 23.1805 28.2525 21.4375 29.6647C20.7505 30.2245 20.1653 30.7334 19.6691 31.2169C19.1729 30.7334 18.5877 30.2245 17.9006 29.6647C16.1577 28.2525 15.9541 27.1075 15.9541 26.3823C15.9541 26.2169 15.9668 26.0643 15.9923 25.9116L16.3613 23.0108L13.4605 23.3798C13.3078 23.4052 13.1552 23.418 12.9898 23.418C12.2519 23.418 11.1195 23.2144 9.70732 21.4714C9.14753 20.7844 8.63867 20.1992 8.15521 19.703Z" fill="#59231B"></path><path d="M17.0227 19.6822C17.0227 18.2064 18.2187 17.0105 19.6945 17.0105C21.1703 17.0105 22.3662 18.2064 22.3662 19.6822C22.3662 21.158 21.1703 22.354 19.6945 22.354C18.2187 22.354 17.0227 21.158 17.0227 19.6822Z" fill="#E9AE11"></path></svg>