<svg xmlns="http://www.w3.org/2000/svg" width="20" height="20" viewBox="0 0 20 20" fill="none"><path d="M12.0995 17.7132C13.1525 16.854 13.9276 15.7946 13.9276 14.3928C13.9276 14.2248 13.9147 14.0633 13.8954 13.8953C14.0569 13.9147 14.2248 13.9276 14.3928 13.9276C15.7881 13.9276 16.854 13.1525 17.7132 12.0995C18.6047 11.0013 19.2765 10.3553 20 10C19.2765 9.6447 18.6047 8.99225 17.7132 7.90052C16.854 6.84755 15.7946 6.07235 14.3928 6.07235C14.2248 6.07235 14.0569 6.08527 13.8954 6.10465C13.9147 5.94315 13.9276 5.77519 13.9276 5.60724C13.9276 4.21189 13.1525 3.146 12.0995 2.28682C11.0013 1.39535 10.3553 0.723514 10 0C9.64473 0.723514 8.99228 1.39535 7.90054 2.28682C6.84757 3.146 6.07237 4.20543 6.07237 5.60724C6.07237 5.77519 6.08528 5.94315 6.10466 6.10465C5.94316 6.08527 5.77523 6.07235 5.60727 6.07235C4.21192 6.07235 3.14602 6.84755 2.28685 7.90052C1.39537 8.99871 0.723514 9.6447 0 10C0.723514 10.3553 1.39537 11.0078 2.28685 12.0995C3.14602 13.1589 4.20546 13.9276 5.60727 13.9276C5.77523 13.9276 5.94316 13.9147 6.10466 13.8953C6.08528 14.0568 6.07237 14.2248 6.07237 14.3928C6.07237 15.7881 6.84757 16.854 7.90054 17.7132C8.99874 18.6047 9.64473 19.2765 10 20C10.3553 19.2765 11.0078 18.6047 12.0995 17.7132Z" fill="#BE301A"></path></svg>